<svg width="512" height="512" viewBox="0 0 512 512" fill="none" xmlns="http://www.w3.org/2000/svg">
<g clip-path="url(#clip0_11_3)">
<rect width="512" height="512" fill="#FFE2B9"/>
<path d="M144.469 199.414L145.738 199.023C146.65 199.023 147.626 198.47 148.668 197.363C148.928 197.363 149.286 197.233 149.742 196.973H151.305C152.281 195.996 153.355 195.475 154.527 195.41C155.699 195.28 157.099 195.02 158.727 194.629C160.419 194.238 161.689 194.01 162.535 193.945C163.447 193.88 164.13 193.75 164.586 193.555C165.042 193.294 165.335 193.164 165.465 193.164L167.906 193.555C169.664 193.555 170.868 193.913 171.52 194.629C172.171 195.28 173.342 196.257 175.035 197.559C176.793 198.796 177.672 201.53 177.672 205.762V205.957L177.281 208.203L177.477 209.766C177.477 210.156 177.216 210.645 176.695 211.23L176.305 212.402C176.305 213.704 175.882 214.974 175.035 216.211C174.254 217.383 173.798 218.457 173.668 219.434L172.496 220.996L170.934 224.805L168.492 228.027L166.734 231.641L164.684 233.984L164.488 234.57C164.033 235.807 163.382 236.426 162.535 236.426V238.184C162.535 238.835 162.079 239.909 161.168 241.406C160.322 242.839 159.833 243.978 159.703 244.824L158.727 246.582C159.378 247.103 160.159 247.363 161.07 247.363C161.266 247.363 162.079 247.038 163.512 246.387C164.944 245.736 166.083 245.41 166.93 245.41L176.109 243.555C176.305 243.555 176.695 243.783 177.281 244.238C177.672 243.522 177.932 243.164 178.062 243.164L180.504 242.188C181.415 242.448 181.936 242.578 182.066 242.578C184.215 242.578 186.559 242.057 189.098 241.016C193.199 239.909 197.203 239.355 201.109 239.355L209.117 237.598C209.573 237.077 209.964 236.198 210.289 234.961C210.68 233.659 211.201 232.812 211.852 232.422C212.568 232.031 213.056 231.51 213.316 230.859C213.577 230.143 214.033 229.329 214.684 228.418L215.66 225.781L218.102 221.387L218.688 219.238C218.948 218.392 219.892 217.057 221.52 215.234V214.648C221.52 213.281 222.105 212.337 223.277 211.816L223.473 211.426V208.789C223.473 207.943 224.221 207.357 225.719 207.031L226.5 205.762L226.305 202.637C226.305 201.921 226.565 201.302 227.086 200.781C227.607 200.26 227.9 199.74 227.965 199.219C228.03 198.698 228.355 197.819 228.941 196.582L229.332 194.434C229.332 194.043 229.43 193.685 229.625 193.359C229.82 192.969 229.918 192.122 229.918 190.82C229.918 186.393 231.969 184.18 236.07 184.18C237.307 184.18 238.707 185.026 240.27 186.719C241.897 188.346 242.711 189.779 242.711 191.016C242.711 194.857 242.385 197.526 241.734 199.023C241.604 199.284 241.311 200.065 240.855 201.367C240.465 202.604 239.293 204.883 237.34 208.203L236.266 209.961H234.898L234.703 210.156L235.094 212.793L234.117 213.77V215.039C233.857 215.299 233.629 215.723 233.434 216.309C233.238 216.895 232.75 217.643 231.969 218.555C231.253 219.401 230.895 219.954 230.895 220.215V221.387L230.504 222.168C229.267 224.707 228.616 226.27 228.551 226.855C228.486 227.376 228.128 228.027 227.477 228.809C227.477 229.85 226.76 231.12 225.328 232.617C225.458 232.747 225.523 232.878 225.523 233.008L224.742 235.84C225.003 235.97 227.704 236.035 232.848 236.035L234.703 235.84L238.609 236.621C239.065 236.621 239.553 236.686 240.074 236.816L240.465 237.988C242.483 238.118 243.492 238.867 243.492 240.234C243.492 242.318 242.743 244.173 241.246 245.801C239.749 247.428 238.023 248.242 236.07 248.242C235.549 248.242 234.931 248.014 234.215 247.559C233.499 247.038 232.913 246.777 232.457 246.777L229.918 247.168L227.477 246.387L225.914 246.582L224.449 246.387L222.887 246.582L221.715 246.387C220.934 246.387 220.12 246.712 219.273 247.363H217.516C217.385 247.363 216.409 249.284 214.586 253.125C212.763 256.901 211.461 259.733 210.68 261.621C210.549 261.882 210.094 262.207 209.312 262.598C208.792 264.876 207.783 266.211 206.285 266.602L206.48 267.969C206.09 268.815 205.862 269.629 205.797 270.41C205.732 271.191 205.146 272.005 204.039 272.852C202.997 273.633 202.379 274.805 202.184 276.367C201.988 277.93 201.467 279.688 200.621 281.641C199.775 283.594 199.189 284.766 198.863 285.156C198.603 285.482 198.049 286.263 197.203 287.5C196.422 288.672 195.673 289.551 194.957 290.137C194.241 290.723 193.883 291.146 193.883 291.406L194.469 292.773C194.143 295.052 193.492 296.191 192.516 296.191V297.363C192.516 298.079 191.767 298.763 190.27 299.414C190.66 300.195 190.855 300.716 190.855 300.977C190.855 302.083 190.595 302.897 190.074 303.418C189.163 303.548 188.707 303.809 188.707 304.199L189.293 305.371C189.423 305.501 189.488 305.762 189.488 306.152C189.488 306.478 189.163 308.105 188.512 311.035C189.814 311.882 190.465 312.793 190.465 313.77L190.27 315.039C191.246 315.951 191.734 316.471 191.734 316.602L191.051 318.848C190.855 319.694 190.27 320.41 189.293 320.996C188.316 321.517 186.917 321.777 185.094 321.777C183.466 321.777 182.359 321.549 181.773 321.094C181.188 320.638 180.439 320.182 179.527 319.727C178.681 319.271 178.193 318.815 178.062 318.359C177.932 317.839 177.411 316.992 176.5 315.82C175.589 314.583 175.133 312.988 175.133 311.035V309.766L174.938 307.031V306.152L175.523 301.953L175.133 298.438C175.133 298.177 175.263 297.819 175.523 297.363C175.784 296.842 175.979 296.387 176.109 295.996C175.458 293.327 175.133 291.732 175.133 291.211L172.496 281.445C172.431 281.12 172.822 280.436 173.668 279.395C171.585 279.004 170.38 278.483 170.055 277.832C169.794 277.116 169.534 276.66 169.273 276.465C169.013 276.27 168.753 275.911 168.492 275.391L156.48 269.629C156.415 269.564 156.22 269.271 155.895 268.75C155.634 268.229 155.016 267.904 154.039 267.773C153.128 267.643 152.542 267.448 152.281 267.188L151.305 266.406L146.91 266.016L144.859 267.188C144.859 267.708 144.436 268.49 143.59 269.531C142.809 270.573 141.962 272.266 141.051 274.609C140.465 276.172 139.749 276.953 138.902 276.953L138.512 277.832V280.176C138.512 280.827 138.154 281.38 137.438 281.836C136.786 282.227 136.201 282.617 135.68 283.008C135.81 283.138 135.94 283.529 136.07 284.18V284.57L135.289 286.035C135.159 286.165 135.029 286.751 134.898 287.793C134.768 288.835 133.889 289.974 132.262 291.211L130.895 292.773V294.824L129.625 298.438C128.779 301.237 127.867 303.353 126.891 304.785C126.109 304.915 125.719 305.241 125.719 305.762L126.109 307.031C126.24 307.161 126.305 307.357 126.305 307.617C126.305 308.789 125.751 309.408 124.645 309.473C123.603 309.538 123.017 309.831 122.887 310.352C123.473 312.24 123.766 313.216 123.766 313.281C123.766 313.867 123.212 314.388 122.105 314.844H121.91L122.496 318.555C120.999 319.987 120.25 321.191 120.25 322.168C120.445 322.298 120.608 322.786 120.738 323.633V324.414C120.738 326.953 119.664 328.223 117.516 328.223C116.669 328.223 114.879 326.693 112.145 323.633C109.475 320.573 108.141 317.415 108.141 314.16L108.824 309.473C109.28 306.087 109.768 304.036 110.289 303.32C110.81 302.604 111.266 301.693 111.656 300.586C112.112 299.414 112.503 298.665 112.828 298.34C113.154 297.949 113.512 297.363 113.902 296.582L114.879 295.02L115.27 293.359L116.051 291.602C117.548 289.193 118.232 287.923 118.102 287.793C118.102 287.142 118.557 286.393 119.469 285.547C120.445 284.701 120.934 283.626 120.934 282.324C120.934 281.152 121.78 279.72 123.473 278.027L124.059 276.953C127.053 270.833 129.137 267.383 130.309 266.602C129.788 265.104 129.332 264.355 128.941 264.355C128.616 264.355 128.193 264.453 127.672 264.648C127.151 264.779 126.663 264.844 126.207 264.844C125.751 264.844 125.165 264.941 124.449 265.137C123.798 265.332 122.757 265.43 121.324 265.43C120.803 265.43 120.055 265.56 119.078 265.82H118.883C118.622 265.82 118.102 265.592 117.32 265.137C116.604 264.616 116.246 264.29 116.246 264.16C116.246 262.728 117.385 261.198 119.664 259.57C122.008 257.943 124.807 256.673 128.062 255.762C128.648 255.762 129.397 255.339 130.309 254.492C131.22 253.646 132.685 253.223 134.703 253.223L136.07 252.441L137.047 252.637C138.544 250.749 139.749 248.991 140.66 247.363V246.191C140.66 245.931 141.344 244.987 142.711 243.359C144.143 241.667 144.924 240.69 145.055 240.43V238.77C146.227 237.533 147.073 236.198 147.594 234.766C148.115 233.268 149.286 231.608 151.109 229.785L152.477 226.953C153.974 224.154 155.406 221.777 156.773 219.824C158.206 217.806 159.182 215.983 159.703 214.355L161.266 212.402L162.34 209.57C163.577 206.771 164.488 205.046 165.074 204.395C164.944 202.376 164.553 201.367 163.902 201.367L156.48 202.832L154.723 202.637C153.225 203.418 151.793 203.906 150.426 204.102C149.124 204.297 147.626 205.143 145.934 206.641L143.883 206.348C143.427 206.348 142.841 206.608 142.125 207.129C141.474 207.65 139.651 208.398 136.656 209.375C136.396 210.286 136.135 210.84 135.875 211.035H133.727L130.504 213.77C128.616 214.876 127.249 215.82 126.402 216.602C125.556 217.383 124.84 217.773 124.254 217.773C123.147 217.773 120.836 220.703 117.32 226.562L116.051 227.441L115.074 229.004C114.618 229.134 113.967 229.264 113.121 229.395C111.884 230.762 110.875 231.445 110.094 231.445C109.508 231.445 108.271 230.957 106.383 229.98C104.56 228.939 103.648 227.083 103.648 224.414C103.648 221.484 107.945 217.871 116.539 213.574L118.883 212.012C119.534 211.882 120.478 211.751 121.715 211.621C123.668 209.928 125.589 208.691 127.477 207.91C129.365 207.064 130.732 206.315 131.578 205.664C132.424 204.948 133.857 204.297 135.875 203.711C137.893 203.125 139.228 202.409 139.879 201.562C140.53 200.651 140.921 200.195 141.051 200.195L143.102 200.391L144.469 199.414ZM164.488 266.992L165.855 268.164C166.116 268.034 166.409 267.969 166.734 267.969C167.776 267.969 169.664 268.88 172.398 270.703C175.133 272.461 176.695 273.73 177.086 274.512C177.477 275.228 178.03 276.27 178.746 277.637C179.527 278.939 180.211 280.599 180.797 282.617C181.383 284.635 181.936 285.905 182.457 286.426C182.913 285.579 183.336 284.57 183.727 283.398L187.34 275C187.34 274.87 187.665 274.414 188.316 273.633L189.098 272.168L190.074 271.973C189.944 271.712 189.879 271.322 189.879 270.801C189.879 270.02 190.693 268.815 192.32 267.188L193.297 264.16L195.738 261.035C195.999 259.863 196.52 258.626 197.301 257.324C198.082 256.022 198.538 255.371 198.668 255.371L199.449 254.98C199.905 252.572 200.523 250.977 201.305 250.195L201.5 249.609C201.24 249.74 201.044 249.805 200.914 249.805C200.784 249.674 200.393 249.544 199.742 249.414H199.254C198.603 249.414 197.757 249.609 196.715 250H195.738C195.608 250 195.25 249.87 194.664 249.609H194.273L191.539 250.781H191.246L190.27 250C189.488 250.13 188.707 250.195 187.926 250.195C187.665 250.195 187.014 250.391 185.973 250.781C184.996 251.172 184.052 251.367 183.141 251.367L178.453 251.953L176.109 251.758H173.863L171.91 250.977C170.673 252.474 169.273 253.223 167.711 253.223L166.93 253.418H166.734L164.684 252.832C164.293 252.832 164.033 252.604 163.902 252.148C163.772 251.628 163.577 251.367 163.316 251.367C162.47 253.255 161.266 254.297 159.703 254.492C158.206 254.688 156.936 255.111 155.895 255.762C154.267 256.217 153.193 256.445 152.672 256.445C152.542 256.445 152.281 256.348 151.891 256.152C149.091 260.514 147.691 262.793 147.691 262.988C147.691 263.379 148.701 263.574 150.719 263.574L152.086 264.16C152.477 264.486 153.193 264.746 154.234 264.941C155.341 265.137 156.48 265.43 157.652 265.82L159.117 265.43C159.247 265.43 159.866 265.592 160.973 265.918L164.488 266.992ZM129.137 260.645C129.658 260.775 130.374 260.84 131.285 260.84C131.806 260.84 132.066 260.612 132.066 260.156C132.066 259.766 131.871 259.57 131.48 259.57C130.439 259.57 129.658 259.928 129.137 260.645ZM231.285 286.23H232.457C233.824 286.23 234.833 286.1 235.484 285.84C235.875 286.1 236.396 286.23 237.047 286.23C237.177 286.23 237.47 286.165 237.926 286.035H240.66C241.311 286.035 242.451 285.742 244.078 285.156H244.273C244.924 285.612 245.445 285.84 245.836 285.84H246.324L248.082 285.352C250.491 285.352 253.421 285.97 256.871 287.207L258.727 286.621C259.247 286.621 259.964 286.882 260.875 287.402L261.656 287.598C261.786 289.095 261.852 290.169 261.852 290.82C261.852 292.513 261.396 293.685 260.484 294.336C259.573 294.922 258.434 295.801 257.066 296.973C255.764 298.079 254.56 298.633 253.453 298.633L251.305 298.047H250.719L248.473 298.438C248.212 298.568 247.822 298.633 247.301 298.633C246.194 298.633 245.152 298.307 244.176 297.656C243.264 296.94 242.711 296.582 242.516 296.582L236.852 297.363L234.898 296.777C234.768 296.647 234.508 296.582 234.117 296.582C233.727 296.582 232.945 296.745 231.773 297.07C230.667 297.396 229.755 297.559 229.039 297.559C228.518 297.559 227.867 297.396 227.086 297.07C226.305 296.745 225.719 296.582 225.328 296.582C224.742 296.582 223.961 296.712 222.984 296.973C222.008 297.233 221.161 297.363 220.445 297.363C219.794 297.363 218.948 296.842 217.906 295.801L217.516 295.605H215.465C214.033 295.605 213.316 294.271 213.316 291.602C213.316 291.211 213.707 290.495 214.488 289.453C215.27 288.346 216.051 287.76 216.832 287.695C217.678 287.63 218.557 287.402 219.469 287.012C220.38 286.621 221.78 286.426 223.668 286.426L226.5 287.012H226.891L231.285 286.23ZM326.891 199.414L328.16 199.023C329.072 199.023 330.048 198.47 331.09 197.363C331.35 197.363 331.708 197.233 332.164 196.973H333.727C334.703 195.996 335.777 195.475 336.949 195.41C338.121 195.28 339.521 195.02 341.148 194.629C342.841 194.238 344.111 194.01 344.957 193.945C345.868 193.88 346.552 193.75 347.008 193.555C347.464 193.294 347.757 193.164 347.887 193.164L350.328 193.555C352.086 193.555 353.29 193.913 353.941 194.629C354.592 195.28 355.764 196.257 357.457 197.559C359.215 198.796 360.094 201.53 360.094 205.762V205.957L359.703 208.203L359.898 209.766C359.898 210.156 359.638 210.645 359.117 211.23L358.727 212.402C358.727 213.704 358.303 214.974 357.457 216.211C356.676 217.383 356.22 218.457 356.09 219.434L354.918 220.996L353.355 224.805L350.914 228.027L349.156 231.641L347.105 233.984L346.91 234.57C346.454 235.807 345.803 236.426 344.957 236.426V238.184C344.957 238.835 344.501 239.909 343.59 241.406C342.743 242.839 342.255 243.978 342.125 244.824L341.148 246.582C341.799 247.103 342.581 247.363 343.492 247.363C343.688 247.363 344.501 247.038 345.934 246.387C347.366 245.736 348.505 245.41 349.352 245.41L358.531 243.555C358.727 243.555 359.117 243.783 359.703 244.238C360.094 243.522 360.354 243.164 360.484 243.164L362.926 242.188C363.837 242.448 364.358 242.578 364.488 242.578C366.637 242.578 368.98 242.057 371.52 241.016C375.621 239.909 379.625 239.355 383.531 239.355L391.539 237.598C391.995 237.077 392.385 236.198 392.711 234.961C393.102 233.659 393.622 232.812 394.273 232.422C394.99 232.031 395.478 231.51 395.738 230.859C395.999 230.143 396.454 229.329 397.105 228.418L398.082 225.781L400.523 221.387L401.109 219.238C401.37 218.392 402.314 217.057 403.941 215.234V214.648C403.941 213.281 404.527 212.337 405.699 211.816L405.895 211.426V208.789C405.895 207.943 406.643 207.357 408.141 207.031L408.922 205.762L408.727 202.637C408.727 201.921 408.987 201.302 409.508 200.781C410.029 200.26 410.322 199.74 410.387 199.219C410.452 198.698 410.777 197.819 411.363 196.582L411.754 194.434C411.754 194.043 411.852 193.685 412.047 193.359C412.242 192.969 412.34 192.122 412.34 190.82C412.34 186.393 414.391 184.18 418.492 184.18C419.729 184.18 421.129 185.026 422.691 186.719C424.319 188.346 425.133 189.779 425.133 191.016C425.133 194.857 424.807 197.526 424.156 199.023C424.026 199.284 423.733 200.065 423.277 201.367C422.887 202.604 421.715 204.883 419.762 208.203L418.688 209.961H417.32L417.125 210.156L417.516 212.793L416.539 213.77V215.039C416.279 215.299 416.051 215.723 415.855 216.309C415.66 216.895 415.172 217.643 414.391 218.555C413.674 219.401 413.316 219.954 413.316 220.215V221.387L412.926 222.168C411.689 224.707 411.038 226.27 410.973 226.855C410.908 227.376 410.549 228.027 409.898 228.809C409.898 229.85 409.182 231.12 407.75 232.617C407.88 232.747 407.945 232.878 407.945 233.008L407.164 235.84C407.424 235.97 410.126 236.035 415.27 236.035L417.125 235.84L421.031 236.621C421.487 236.621 421.975 236.686 422.496 236.816L422.887 237.988C424.905 238.118 425.914 238.867 425.914 240.234C425.914 242.318 425.165 244.173 423.668 245.801C422.171 247.428 420.445 248.242 418.492 248.242C417.971 248.242 417.353 248.014 416.637 247.559C415.921 247.038 415.335 246.777 414.879 246.777L412.34 247.168L409.898 246.387L408.336 246.582L406.871 246.387L405.309 246.582L404.137 246.387C403.355 246.387 402.542 246.712 401.695 247.363H399.938C399.807 247.363 398.831 249.284 397.008 253.125C395.185 256.901 393.883 259.733 393.102 261.621C392.971 261.882 392.516 262.207 391.734 262.598C391.214 264.876 390.204 266.211 388.707 266.602L388.902 267.969C388.512 268.815 388.284 269.629 388.219 270.41C388.154 271.191 387.568 272.005 386.461 272.852C385.419 273.633 384.801 274.805 384.605 276.367C384.41 277.93 383.889 279.688 383.043 281.641C382.197 283.594 381.611 284.766 381.285 285.156C381.025 285.482 380.471 286.263 379.625 287.5C378.844 288.672 378.095 289.551 377.379 290.137C376.663 290.723 376.305 291.146 376.305 291.406L376.891 292.773C376.565 295.052 375.914 296.191 374.938 296.191V297.363C374.938 298.079 374.189 298.763 372.691 299.414C373.082 300.195 373.277 300.716 373.277 300.977C373.277 302.083 373.017 302.897 372.496 303.418C371.585 303.548 371.129 303.809 371.129 304.199L371.715 305.371C371.845 305.501 371.91 305.762 371.91 306.152C371.91 306.478 371.585 308.105 370.934 311.035C372.236 311.882 372.887 312.793 372.887 313.77L372.691 315.039C373.668 315.951 374.156 316.471 374.156 316.602L373.473 318.848C373.277 319.694 372.691 320.41 371.715 320.996C370.738 321.517 369.339 321.777 367.516 321.777C365.888 321.777 364.781 321.549 364.195 321.094C363.609 320.638 362.861 320.182 361.949 319.727C361.103 319.271 360.615 318.815 360.484 318.359C360.354 317.839 359.833 316.992 358.922 315.82C358.01 314.583 357.555 312.988 357.555 311.035V309.766L357.359 307.031V306.152L357.945 301.953L357.555 298.438C357.555 298.177 357.685 297.819 357.945 297.363C358.206 296.842 358.401 296.387 358.531 295.996C357.88 293.327 357.555 291.732 357.555 291.211L354.918 281.445C354.853 281.12 355.243 280.436 356.09 279.395C354.007 279.004 352.802 278.483 352.477 277.832C352.216 277.116 351.956 276.66 351.695 276.465C351.435 276.27 351.174 275.911 350.914 275.391L338.902 269.629C338.837 269.564 338.642 269.271 338.316 268.75C338.056 268.229 337.438 267.904 336.461 267.773C335.549 267.643 334.964 267.448 334.703 267.188L333.727 266.406L329.332 266.016L327.281 267.188C327.281 267.708 326.858 268.49 326.012 269.531C325.23 270.573 324.384 272.266 323.473 274.609C322.887 276.172 322.171 276.953 321.324 276.953L320.934 277.832V280.176C320.934 280.827 320.576 281.38 319.859 281.836C319.208 282.227 318.622 282.617 318.102 283.008C318.232 283.138 318.362 283.529 318.492 284.18V284.57L317.711 286.035C317.581 286.165 317.451 286.751 317.32 287.793C317.19 288.835 316.311 289.974 314.684 291.211L313.316 292.773V294.824L312.047 298.438C311.201 301.237 310.289 303.353 309.312 304.785C308.531 304.915 308.141 305.241 308.141 305.762L308.531 307.031C308.661 307.161 308.727 307.357 308.727 307.617C308.727 308.789 308.173 309.408 307.066 309.473C306.025 309.538 305.439 309.831 305.309 310.352C305.895 312.24 306.188 313.216 306.188 313.281C306.188 313.867 305.634 314.388 304.527 314.844H304.332L304.918 318.555C303.421 319.987 302.672 321.191 302.672 322.168C302.867 322.298 303.03 322.786 303.16 323.633V324.414C303.16 326.953 302.086 328.223 299.938 328.223C299.091 328.223 297.301 326.693 294.566 323.633C291.897 320.573 290.562 317.415 290.562 314.16L291.246 309.473C291.702 306.087 292.19 304.036 292.711 303.32C293.232 302.604 293.688 301.693 294.078 300.586C294.534 299.414 294.924 298.665 295.25 298.34C295.576 297.949 295.934 297.363 296.324 296.582L297.301 295.02L297.691 293.359L298.473 291.602C299.97 289.193 300.654 287.923 300.523 287.793C300.523 287.142 300.979 286.393 301.891 285.547C302.867 284.701 303.355 283.626 303.355 282.324C303.355 281.152 304.202 279.72 305.895 278.027L306.48 276.953C309.475 270.833 311.559 267.383 312.73 266.602C312.21 265.104 311.754 264.355 311.363 264.355C311.038 264.355 310.615 264.453 310.094 264.648C309.573 264.779 309.085 264.844 308.629 264.844C308.173 264.844 307.587 264.941 306.871 265.137C306.22 265.332 305.178 265.43 303.746 265.43C303.225 265.43 302.477 265.56 301.5 265.82H301.305C301.044 265.82 300.523 265.592 299.742 265.137C299.026 264.616 298.668 264.29 298.668 264.16C298.668 262.728 299.807 261.198 302.086 259.57C304.43 257.943 307.229 256.673 310.484 255.762C311.07 255.762 311.819 255.339 312.73 254.492C313.642 253.646 315.107 253.223 317.125 253.223L318.492 252.441L319.469 252.637C320.966 250.749 322.171 248.991 323.082 247.363V246.191C323.082 245.931 323.766 244.987 325.133 243.359C326.565 241.667 327.346 240.69 327.477 240.43V238.77C328.648 237.533 329.495 236.198 330.016 234.766C330.536 233.268 331.708 231.608 333.531 229.785L334.898 226.953C336.396 224.154 337.828 221.777 339.195 219.824C340.628 217.806 341.604 215.983 342.125 214.355L343.688 212.402L344.762 209.57C345.999 206.771 346.91 205.046 347.496 204.395C347.366 202.376 346.975 201.367 346.324 201.367L338.902 202.832L337.145 202.637C335.647 203.418 334.215 203.906 332.848 204.102C331.546 204.297 330.048 205.143 328.355 206.641L326.305 206.348C325.849 206.348 325.263 206.608 324.547 207.129C323.896 207.65 322.073 208.398 319.078 209.375C318.818 210.286 318.557 210.84 318.297 211.035H316.148L312.926 213.77C311.038 214.876 309.671 215.82 308.824 216.602C307.978 217.383 307.262 217.773 306.676 217.773C305.569 217.773 303.258 220.703 299.742 226.562L298.473 227.441L297.496 229.004C297.04 229.134 296.389 229.264 295.543 229.395C294.306 230.762 293.297 231.445 292.516 231.445C291.93 231.445 290.693 230.957 288.805 229.98C286.982 228.939 286.07 227.083 286.07 224.414C286.07 221.484 290.367 217.871 298.961 213.574L301.305 212.012C301.956 211.882 302.9 211.751 304.137 211.621C306.09 209.928 308.01 208.691 309.898 207.91C311.786 207.064 313.154 206.315 314 205.664C314.846 204.948 316.279 204.297 318.297 203.711C320.315 203.125 321.65 202.409 322.301 201.562C322.952 200.651 323.342 200.195 323.473 200.195L325.523 200.391L326.891 199.414ZM346.91 266.992L348.277 268.164C348.538 268.034 348.831 267.969 349.156 267.969C350.198 267.969 352.086 268.88 354.82 270.703C357.555 272.461 359.117 273.73 359.508 274.512C359.898 275.228 360.452 276.27 361.168 277.637C361.949 278.939 362.633 280.599 363.219 282.617C363.805 284.635 364.358 285.905 364.879 286.426C365.335 285.579 365.758 284.57 366.148 283.398L369.762 275C369.762 274.87 370.087 274.414 370.738 273.633L371.52 272.168L372.496 271.973C372.366 271.712 372.301 271.322 372.301 270.801C372.301 270.02 373.115 268.815 374.742 267.188L375.719 264.16L378.16 261.035C378.421 259.863 378.941 258.626 379.723 257.324C380.504 256.022 380.96 255.371 381.09 255.371L381.871 254.98C382.327 252.572 382.945 250.977 383.727 250.195L383.922 249.609C383.661 249.74 383.466 249.805 383.336 249.805C383.206 249.674 382.815 249.544 382.164 249.414H381.676C381.025 249.414 380.178 249.609 379.137 250H378.16C378.03 250 377.672 249.87 377.086 249.609H376.695L373.961 250.781H373.668L372.691 250C371.91 250.13 371.129 250.195 370.348 250.195C370.087 250.195 369.436 250.391 368.395 250.781C367.418 251.172 366.474 251.367 365.562 251.367L360.875 251.953L358.531 251.758H356.285L354.332 250.977C353.095 252.474 351.695 253.223 350.133 253.223L349.352 253.418H349.156L347.105 252.832C346.715 252.832 346.454 252.604 346.324 252.148C346.194 251.628 345.999 251.367 345.738 251.367C344.892 253.255 343.688 254.297 342.125 254.492C340.628 254.688 339.358 255.111 338.316 255.762C336.689 256.217 335.615 256.445 335.094 256.445C334.964 256.445 334.703 256.348 334.312 256.152C331.513 260.514 330.113 262.793 330.113 262.988C330.113 263.379 331.122 263.574 333.141 263.574L334.508 264.16C334.898 264.486 335.615 264.746 336.656 264.941C337.763 265.137 338.902 265.43 340.074 265.82L341.539 265.43C341.669 265.43 342.288 265.592 343.395 265.918L346.91 266.992ZM311.559 260.645C312.079 260.775 312.796 260.84 313.707 260.84C314.228 260.84 314.488 260.612 314.488 260.156C314.488 259.766 314.293 259.57 313.902 259.57C312.861 259.57 312.079 259.928 311.559 260.645Z" fill="#402905"/>
</g>
<defs>
<clipPath id="clip0_11_3">
<rect width="512" height="512" rx="40" fill="white"/>
</clipPath>
</defs>
</svg>
