<?xml version="1.0" encoding="UTF-8"?>
<svg id="b" data-name="Layer 2" xmlns="http://www.w3.org/2000/svg" viewBox="0 0 276.73 172.66">
  <g id="c" data-name="Layer 1">
    <path d="M238.12,3.12l1.72,7.24c-2.43,4.55-8.15,5.56-5.95,11.67.61,1.68,1.69,4.5,3.57,4.3,5.81-.62,15.41-5.7,19.48-9.92,3.15-3.26,6-10.84,11.71-10.46,3.05.2,7.69,6.24,8.06,9.33.21,1.78-2.55,10-3.53,11.84-2.88,5.44-17.57,15.72-23.1,19.88-2.95,2.22-11.17,6.9-12.48,10.07-.86,2.07-.75,6.49-1.21,9-4.81,26.38-23.85,59.56-43.69,77.56-1.27,1.15-6.85,5.02-7.23,5.96-.29.71.28.57.54.72,3.81,2.21,7.85,4.14,11.82,6.05.39.37,1.64,2.92,1.67,3.46.03.42-1.26,4.09-1.5,4.42-.59.79-9.44,2.89-11.17,3.3-31.04,7.2-75.47,7.09-106.04-2.21-3.26-.99-2.56-2.31-3.82-5.15l1.67-3.82c3.97-1.91,8.01-3.84,11.82-6.05.26-.15.83,0,.54-.72-.38-.93-5.96-4.8-7.23-5.96-19.84-18-38.89-51.19-43.69-77.56-.46-2.51-.35-6.94-1.21-9-1.31-3.16-15.82-12.5-19.53-15.36-6.19-4.75-14.46-10.3-17.26-17.63C.11,18.9-1.66,13.91,2.72,9.38c1.66-1.72,4.25-3.69,6.64-3.2,5.28,1.09,6.92,6.85,10.19,10.23,2.24,2.32,7.67,5.92,10.63,7.24,1.38.61,8.49,2.91,9.58,2.78,1.35-.16,3.56-5.73,3.42-7.27-.34-3.92-6.63-6.58-6.53-9.42.03-.74,1.38-6.25,1.73-6.62.72-.77,4.86-1.69,6.07-1.8,7.26-.65,15.56.31,22.99.01,4.66-.19,9.83-1.22,14.43-1.31,12.87-.25,25.86,1.94,38.72,0h35.35l12.3.89c13.75-1.38,27.2-.12,40.85.42,7.43.3,15.72-.66,22.99-.01,2.05.18,4.25.86,6.07,1.8Z"/>
  </g>
</svg>