<?xml version="1.0" encoding="UTF-8"?>
<svg id="b" data-name="Layer 2" xmlns="http://www.w3.org/2000/svg" viewBox="0 0 219.09 281.19">
  <g id="c" data-name="Layer 1">
    <path d="M184.85,76.68c26.81,26.97,51.91,69.09,17.47,101.5-11.08,10.43-24.67,11.73-38.41,15.89-4.51,1.36-13.4,4.1-15.09,8.75-1.39,3.82-.24,4.86-.32,8.03-.23,8.89-.96,18.54-.5,27.39.13,2.46,1.08,10.69,1.89,12.67.7,1.7,3.99,1.73,5.61,2.33,8.25,3.08,11.72,6.52,10.62,15.88-.43,3.66-6.5,5.26-9.63,6.26-24.2,7.74-69.56,7.74-93.77,0-2.51-.8-8.91-2.74-9.53-5.48-.53-2.37-.19-7.36.78-9.63,1.49-3.5,6.34-5.77,9.74-7.04,1.62-.61,4.91-.63,5.61-2.33.81-1.99,1.76-10.22,1.89-12.67.46-8.85-.27-18.49-.5-27.39-.08-3.17,1.06-4.21-.32-8.03-1.69-4.65-10.58-7.38-15.09-8.75-13.74-4.15-27.33-5.46-38.41-15.89-40.58-38.18.61-88.41,32.47-114.99,11.43-9.54,24.02-14.14,22.23-31.96-.38-3.78-3.76-14.97-6.86-16.98-1.29-.84-5.47-2.28-6.11-3.6-1-2.05-.09-7.64,2.42-8.62,5.03-1.96,14.92-1.33,20.55-1.52,1.84-.06,3.28-.41,5.7-.43,15.02-.13,30.05-.07,45.07,0,6.19.03,14.83.13,21.13.91,3.66.45,6.43.83,7.13,4.79,1.27,7.2-2.15,5.66-6.39,8.66-2.92,2.06-6.32,13.49-6.64,17.19-1.53,17.54,10.98,22.15,22.27,31.57,5.03,4.2,10.42,8.88,15,13.49Z"/>
  </g>
</svg>