<?xml version="1.0" encoding="UTF-8"?>
<svg id="b" data-name="Layer 2" xmlns="http://www.w3.org/2000/svg" viewBox="0 0 225.97 265.8">
  <g id="c" data-name="Layer 1">
    <path d="M194.65,75.67c1.22,1.22,2.84,4.56,4.59,4.55,1.24-.01,4.92-1.4,6.13-2.05,6.07-3.25,9.16-11.89,16.85-4.16,6.17,6.2,3.98,17.6-1.08,23.78-4.52,5.52-10.76,9.33-16.42,13.55-.12,6.8-.25,13.66-.98,20.42-3.43,31.73-20.88,62.53-44.03,83.97-2.54,2.35-20.23,16.69-20.49,18.04l3.64,7.47c3.44,1.41,10.57,1.31,13.17,3.85.65.64,3.55,5.94,3.81,6.89.56,2.07.39,3.53-1.45,4.81-11.78,8.17-41.69,9.61-55.85,8.83-8.36-.46-28.52-4.13-35.1-9-1.37-1.01-1.64-2.34-1.39-3.97.15-1.03,3.25-6.83,4-7.57,2.6-2.54,9.73-2.44,13.17-3.85l3.64-7.47c-.26-1.34-17.95-15.68-20.49-18.04-23.15-21.44-40.6-52.24-44.03-83.97-.73-6.77-.86-13.62-.98-20.42C11.83,104.41.68,97.87.02,84.72c-.27-5.31,2.4-10.94,7.41-13.13,5.65-2.47,8.7,4.13,13.27,6.58,1.24.66,5.64,2.31,6.83,2,5.15-6.28,12.2-11.29,19.59-14.69,8.02-3.69,17.1-5.4,24.17-10.93,1.69-11.48-.83-23.09-.42-34.68-5.48-3.52-16.03-1.71-19.71-7.69-.66-1.07-3.64-7.18-3.88-8.15-.27-1.07-.07-1.62.99-2.04,3.46-.16,6.81-1.46,10.23-1.76,5.52-.49,11.16-.01,16.62-.03,25.27-.09,50.54-.09,75.81,0,5.34.02,10.84-.44,16.24-.02,3.63.28,7.26,1.63,10.92,1.92l.81.94c.12.5-3.52,8.46-4.14,9.42-.46.71-1.32,1.83-2.01,2.27-2.98,1.95-16.72,3.41-17.56,5.13.34,11.49-1.96,22.97-.54,34.37,1.15,3.17,20.28,9.39,24.29,11.24,4.61,2.12,12.14,6.66,15.7,10.2Z"/>
  </g>
</svg>