<?xml version="1.0" encoding="UTF-8"?>
<svg id="b" data-name="Layer 2" xmlns="http://www.w3.org/2000/svg" viewBox="0 0 82.4 227.65">
  <g id="c" data-name="Layer 1">
    <path d="M72.99,2.78c.07,1.7.76,3.86.77,5.5,0,.59.03,1.18-.57,1.48l-17.02,2.87c-.82,1.06-1.16,9.21-.98,10.82.58,5.2,7.78,9.59,10.79,13.48,4.42,5.72,4.33,13.32,5.89,20.07l.37.29c4.07-.46,7.86.26,9.26,4.57,2.16,6.64.58,12.07-6.43,14.19l3.71,31.68c2.33,30.81,6.69,62.06-2.94,92.11-4.41,13.74-15.67,23.89-29.68,27.29-11.9,2.89-27.06-6.23-33.93-15.77C.57,195.15-.18,160.47.92,141.09c1.83-21.72,3.54-43.45,6.41-65.05-7.01-2.12-8.6-7.55-6.43-14.19,1.4-4.31,5.19-5.03,9.26-4.57l.37-.29c1.56-6.75,1.47-14.35,5.89-20.07,3.01-3.9,10.2-8.28,10.79-13.48.18-1.61-.16-9.77-.98-10.82-1.3-.59-3.15-.85-4.64-1.09-3.28-.53-8.64-.39-11.48-1.33-2.16-.71-1.43-3.29-1.06-5.26.46-2.45.8-2.66,3.25-3.16C23.11-.39,36.55.62,47.62,0c.69-.03,1.34.32,2.01.35,6.15.28,14.24.31,20.18,1.39,1.11.2,2.18.52,3.18,1.04Z"/>
  </g>
</svg>