<?xml version="1.0" encoding="UTF-8"?>
<svg id="b" data-name="Layer 2" xmlns="http://www.w3.org/2000/svg" viewBox="0 0 237.35 291.96">
  <g id="c" data-name="Layer 1">
    <path d="M36.6,33.06l15.08-.87c25.11.12,50.32-.04,75.31,0,24.61.04,49.28-.5,73.84.86-10.12-10.95-4.17-23.66,7.1-30.55,10.21-6.25,21.89.15,27.17,9.7,2.53,4.57,2.61,9.53,1.78,14.58-2.21,13.46-8.26,27.55-11.24,41.09-1.61,7.33-2.56,14.93-3.11,22.42-.28,3.9.98,7.75-1.71,11.06-.68.83-2.19,1.56-2.46,2.22-.65,1.57-1.62,7.89-1.74,9.75-.22,3.65.78,7.29.34,10.96,6.74,2.17,3.21,8.14,2.62,12.85-2.85,23.03-4.82,48.83-17.31,69.06-9.1,14.74-20.67,24.76-34.26,35.09-5.11,3.88-12.2,7.81-16.75,11.75-1.63,1.42-.81.97.2,2.54h-2.55c.17,2.19,3.9.78,5.76.84.78.02,5.98.63,6.15.88.13.18-.36,2.65.52,4.35,1.73,3.34,4.53-.32,6.67,1.84.71.72,3.5,7.16,3.89,8.45,1.89,6.29.26,8.52-5.26,11.36-22.36,11.53-73.52,11.54-95.88,0-7.53-3.89-7.02-7.15-4.04-14.4.38-.92,2.39-5.29,2.84-5.67,2.41-1.98,5.87,2.97,7.18-3.93.15-.8-.22-1.93-.16-2.02.17-.26,5.37-.86,6.15-.88,1.86-.06,5.58,1.35,5.76-.83h-2.55c1.01-1.58,1.84-1.13.2-2.55-4.55-3.94-11.65-7.87-16.75-11.75-13.59-10.33-25.16-20.36-34.26-35.09-12.49-20.23-14.46-46.03-17.31-69.06-.46-3.74-3.12-8.23.03-11.54.79-.82,2.51-1.01,2.59-1.31.29-1.08-.12-4.05-.04-5.5.23-4.39.37-11.05-1.35-15.21-.27-.66-1.79-1.38-2.46-2.22-2.68-3.31-1.42-7.16-1.71-11.06-.64-8.74-1.91-17.34-3.95-25.84C8.1,52.52.55,34.51.02,23.06-.65,8.46,15.74-5.93,29.51,2.5c11.26,6.89,17.22,19.6,7.1,30.55ZM28.52,36.89c-3.46.07-8.19-1.06-10.63-3.62-1.35-1.42-1.12-3.61-3.83-2.33,2.72,10.3,4.44,20.89,8.63,30.73.98,3.56,1.8,7.16,2.39,10.8.26,1.65.4,7.84.89,8.77.34.64,5.66,2.7,6.31,4.88.88,2.97-.56,8.79-.33,12.25.05.72,1.15,6.62,1.5,6.61l6.53-.91c3.74-8.57,4.34-17.25,3.87-26.54-.58-11.41-1.83-18.7-6.88-28.86-.41-.83-.53-2.19-.9-2.72-1.01-1.41-5.39-.78-6.89-2.68-1.29-1.65-1.29-4.47-.64-6.37ZM223.39,30.94c-2.72-1.27-2.48.92-3.83,2.33-2.44,2.56-7.17,3.69-10.63,3.62.64,1.91.64,4.73-.64,6.37-1.49,1.91-5.88,1.28-6.89,2.68-.38.53-.49,1.89-.9,2.72-3.8,7.65-5.03,11.28-6.03,19.92-1.37,11.88-1.93,24.34,3.02,35.47l6.76.9c.32-2.29,1.18-4.68,1.29-7,.17-3.33-1.22-8.94-.35-11.84.65-2.18,5.97-4.24,6.31-4.88.49-.92.62-7.12.89-8.77,1.2-7.48,3.39-14.09,6.12-21.11l4.89-20.42Z"/>
  </g>
</svg>