<?xml version="1.0" encoding="UTF-8"?>
<svg id="b" data-name="Layer 2" xmlns="http://www.w3.org/2000/svg" viewBox="0 0 532.03 86.43">
  <g id="c" data-name="Layer 1">
    <g>
      <path d="M24.49,9.14l.76-.23c.55,0,1.13-.33,1.76-1,.16,0,.37-.08.64-.23h.94c.59-.59,1.23-.91,1.93-.97s1.55-.21,2.55-.44,1.76-.37,2.28-.41c.53-.04.93-.13,1.2-.26.27-.14.45-.21.53-.21l1.46.23c1.05,0,1.77.21,2.17.62s1.1,1,2.14,1.76c1.03.76,1.55,2.41,1.55,4.95v.12l-.23,1.35.12.94c0,.23-.16.53-.47.88l-.23.7c0,.78-.24,1.53-.73,2.26-.49.72-.77,1.38-.85,1.96l-.7.94-.94,2.29-1.46,1.93-1.05,2.17-1.23,1.41-.12.35c-.27.74-.66,1.11-1.17,1.11v1.05c0,.39-.26,1.03-.79,1.9s-.83,1.57-.91,2.08l-.59,1.05c.39.31.86.47,1.41.47.12,0,.6-.19,1.46-.59.86-.39,1.54-.59,2.05-.59l5.51-1.11c.12,0,.35.14.7.41.23-.43.39-.64.47-.64l1.46-.59c.55.16.86.23.93.23,1.29,0,2.69-.31,4.21-.94,2.45-.66,4.85-1,7.19-1l4.79-1.05c.27-.31.52-.85.73-1.61.21-.76.53-1.26.93-1.49.41-.23.69-.56.85-.97.16-.41.43-.89.82-1.44l.58-1.58,1.46-2.64.35-1.29c.16-.51.72-1.31,1.69-2.4v-.35c0-.82.35-1.39,1.05-1.7l.12-.23v-1.58c0-.51.45-.86,1.34-1.05l.47-.76-.12-1.88c0-.43.16-.8.47-1.11.31-.31.49-.62.53-.94.04-.31.23-.84.58-1.58l.24-1.29c0-.23.06-.46.18-.67.12-.21.18-.71.18-1.49,0-2.66,1.24-3.98,3.73-3.98.75,0,1.61.5,2.57,1.49.97,1,1.45,1.87,1.45,2.61,0,2.31-.2,3.91-.59,4.8-.08.16-.24.62-.5,1.38-.25.76-.97,2.14-2.14,4.13l-.65,1.05h-.82l-.12.12.23,1.58-.59.59v.76c-.16.16-.29.41-.41.76s-.4.79-.85,1.32-.67.87-.67,1.03v.7l-.23.47c-.74,1.52-1.13,2.45-1.17,2.78-.04.33-.25.73-.65,1.2,0,.63-.43,1.39-1.29,2.29.08.08.12.16.12.23l-.47,1.7c.16.08,1.78.12,4.87.12l1.11-.12,2.34.47c.27,0,.57.04.88.12l.24.7c1.21.08,1.82.53,1.82,1.35,0,1.25-.45,2.36-1.35,3.34-.9.98-1.93,1.46-3.11,1.46-.31,0-.68-.15-1.11-.44s-.78-.44-1.05-.44l-1.52.23-1.47-.47-.94.12-.88-.12-.94.12-.7-.12c-.47,0-.96.2-1.46.59h-1.06c-.08,0-.67,1.14-1.76,3.43-1.1,2.29-1.88,3.99-2.34,5.13-.08.16-.35.35-.82.59-.31,1.37-.92,2.17-1.82,2.4l.12.82c-.23.51-.37,1-.41,1.46-.04.47-.38.95-1.03,1.44-.64.49-1.03,1.2-1.14,2.14s-.43,1.99-.94,3.16c-.51,1.17-.85,1.87-1.03,2.08-.18.22-.51.68-1,1.41-.49.72-.95,1.26-1.38,1.61-.43.35-.64.61-.64.76l.35.82c-.2,1.37-.59,2.05-1.17,2.05v.7c0,.43-.45.84-1.35,1.23.23.47.35.78.35.94,0,.66-.16,1.15-.47,1.46-.55.08-.82.23-.82.47l.35.7c.08.08.12.23.12.47,0,.2-.2,1.17-.59,2.93.78.51,1.17,1.05,1.17,1.64l-.12.76c.59.55.88.86.88.94l-.41,1.35c-.12.51-.47.93-1.06,1.26-.59.33-1.43.5-2.53.5-.98,0-1.65-.14-2-.41-.35-.27-.79-.55-1.32-.82-.53-.27-.83-.56-.91-.85-.08-.29-.39-.8-.94-1.52-.55-.72-.82-1.67-.82-2.84v-.76l-.12-1.64v-.53l.35-2.52-.23-2.11c0-.16.08-.38.23-.67.16-.29.27-.56.35-.79-.39-1.6-.59-2.56-.59-2.87l-1.58-5.86c-.04-.19.19-.6.7-1.23-1.25-.23-1.96-.56-2.13-.97s-.34-.67-.5-.79c-.16-.12-.31-.33-.47-.64l-7.19-3.46s-.15-.21-.32-.53c-.18-.31-.55-.51-1.11-.59-.57-.08-.93-.19-1.08-.35l-.58-.47-2.63-.23-1.23.7c0,.31-.24.78-.73,1.41-.49.63-1,1.64-1.55,3.05-.35.94-.78,1.41-1.29,1.41l-.23.53v1.41c0,.39-.21.71-.61.97-.41.25-.77.5-1.08.73.08.08.16.31.23.7v.23l-.47.88c-.08.08-.16.43-.23,1.05-.08.63-.61,1.31-1.58,2.05l-.82.94v1.23l-.76,2.17c-.51,1.68-1.06,2.95-1.64,3.81-.47.08-.7.27-.7.59l.23.76c.08.08.12.2.12.35,0,.7-.32,1.07-.97,1.11-.65.04-1.01.22-1.09.53.35,1.13.53,1.72.53,1.76,0,.35-.33.66-1,.94h-.12l.35,2.23c-.9.86-1.35,1.58-1.35,2.17.12.08.21.37.29.88v.47c0,1.52-.65,2.29-1.94,2.29-.51,0-1.57-.92-3.19-2.75-1.62-1.84-2.43-3.73-2.43-5.68l.41-2.81c.27-2.03.57-3.26.88-3.69.31-.43.6-.99.85-1.67.25-.68.48-1.13.67-1.35.19-.21.41-.56.64-1.03l.59-.94.23-1,.47-1.05c.9-1.44,1.31-2.21,1.23-2.29,0-.39.28-.84.85-1.35.57-.51.85-1.15.85-1.93,0-.7.51-1.56,1.52-2.58l.35-.64c1.8-3.67,3.05-5.74,3.75-6.21-.31-.9-.59-1.35-.82-1.35-.2,0-.45.05-.76.15-.31.1-.61.15-.88.15s-.62.06-1.03.18-1.05.18-1.91.18c-.31,0-.76.08-1.35.23h-.12c-.16,0-.46-.15-.91-.44-.45-.29-.67-.48-.67-.56,0-.86.69-1.78,2.08-2.75,1.39-.98,3.06-1.74,5.01-2.29.35,0,.8-.25,1.35-.76.55-.51,1.43-.76,2.64-.76l.82-.47.59.12c.9-1.13,1.62-2.19,2.17-3.16v-.7c0-.16.42-.73,1.26-1.73s1.3-1.57,1.38-1.73v-1c.7-.74,1.21-1.55,1.52-2.43s1.02-1.86,2.11-2.96l.82-1.7c.9-1.68,1.77-3.11,2.61-4.31.84-1.19,1.42-2.27,1.73-3.25l.94-1.17.64-1.7c.74-1.68,1.29-2.71,1.64-3.11-.08-1.21-.31-1.82-.7-1.82l-4.45.88-1.05-.12c-.9.47-1.75.76-2.55.88-.8.12-1.71.63-2.72,1.52l-1.23-.18c-.27,0-.62.16-1.03.47-.41.31-1.51.76-3.31,1.35-.16.55-.31.88-.47,1h-1.29l-1.93,1.64c-1.13.66-1.95,1.23-2.46,1.7-.51.47-.94.7-1.29.7-.66,0-2.05,1.76-4.16,5.27l-.76.53-.59.94c-.27.08-.66.16-1.17.23-.74.82-1.35,1.23-1.82,1.23-.35,0-1.08-.3-2.2-.91-1.11-.6-1.67-1.71-1.67-3.31,0-1.76,2.58-3.93,7.73-6.5l1.41-.94c.39-.08.96-.16,1.7-.23,1.17-1.02,2.32-1.77,3.46-2.26,1.13-.49,1.95-.94,2.46-1.35.51-.41,1.37-.79,2.58-1.14,1.21-.35,2.01-.79,2.4-1.32.39-.53.62-.79.7-.79l1.23.12.82-.59ZM15.27,45.88c.31.08.74.12,1.29.12.31,0,.47-.14.47-.41,0-.23-.12-.35-.35-.35-.63,0-1.09.22-1.41.64ZM36.46,49.69l.82.7c.16-.08.33-.12.53-.12.62,0,1.75.54,3.39,1.61,1.64,1.07,2.57,1.84,2.81,2.29.23.45.57,1.07,1.02,1.88.45.8.85,1.81,1.2,3.02.35,1.21.68,1.97.99,2.29.27-.51.53-1.11.76-1.82l2.18-5.04c0-.08.2-.35.59-.82l.47-.88.59-.12c-.08-.16-.12-.39-.12-.7,0-.47.49-1.19,1.47-2.17l.59-1.82,1.47-1.88c.16-.7.47-1.44.94-2.23.47-.78.74-1.17.82-1.17l.47-.23c.27-1.44.64-2.4,1.11-2.87l.12-.35c-.16.08-.27.12-.35.12-.08-.08-.31-.16-.7-.23h-.29c-.39,0-.9.12-1.52.35h-.59c-.08,0-.29-.08-.64-.23h-.23l-1.64.7h-.18l-.59-.47c-.47.08-.94.12-1.41.12-.16,0-.54.12-1.14.35-.61.23-1.18.35-1.73.35l-2.81.35-1.41-.12h-1.35l-1.17-.47c-.74.9-1.58,1.35-2.52,1.35l-.47.12h-.12l-1.23-.35c-.23,0-.39-.15-.47-.44-.08-.29-.2-.44-.35-.44-.51,1.13-1.22,1.76-2.14,1.88s-1.69.37-2.31.76c-.98.27-1.62.41-1.93.41-.08,0-.23-.06-.47-.18-1.68,2.62-2.52,3.98-2.52,4.1,0,.23.6.35,1.81.35l.82.35c.23.2.67.35,1.31.47s1.32.29,2.02.53l.88-.23c.08,0,.45.1,1.11.29l2.1.64Z"/>
      <path d="M77.76,51.39l.88-.23.35-.76c1.91-1.13,3.28-2.21,4.1-3.22.08-.16.25-.31.53-.47.27-.16.57-.43.88-.82,1.44-1.44,3.16-2.17,5.16-2.17,2.34,0,3.59,1.43,3.75,4.28l.35.88c.31.55.75,1.66,1.32,3.34.57,1.68.85,2.72.85,3.11,0,1.05-.33,2.11-1,3.16-.55.27-1.86,1.74-3.93,4.39l-.59.41c-.31.7-.72,1.41-1.23,2.11-.78.27-1.17.57-1.17.88v1.05c0,.08-.09.23-.26.47s-.42.68-.73,1.35l-.47.7c-.16.16-.31.48-.47.97-.16.49-.38.93-.67,1.32-.29.39-.44.7-.44.94,0,.59.76.88,2.29.88.08,0,.37-.12.88-.35l.82.23c.08,0,.27-.13.59-.38.31-.25.79-.46,1.44-.62.64-.16,1.21-.39,1.7-.7.49-.31,1.07-.59,1.76-.82s1.34-.62,1.96-1.14c.62-.53,1.24-.91,1.85-1.14.6-.23,1.17-.6,1.7-1.08.53-.49,1.12-.95,1.79-1.38.66-.43,1.72-1.37,3.16-2.81.94-.74,1.58-1.15,1.93-1.23.08,0,.42-.52,1.03-1.55.6-1.03,1.3-1.55,2.08-1.55.82,0,1.23.39,1.23,1.17,0,.43-.2.84-.59,1.23v.35l.12.94c.08.12.12.29.12.53,0,.16-.15.39-.44.7-.29.31-.5.71-.62,1.2-.12.49-.49.81-1.11.97-.23.86-.54,1.35-.91,1.46-.37.12-.89.51-1.55,1.17s-1.6,1.45-2.81,2.34c-1.21.9-2.04,1.59-2.49,2.08-.45.49-.75.73-.91.73-.08,0-.23-.08-.47-.23-.23-.16-.39-.23-.47-.23-.23,0-.39.27-.47.82l-.23.59c-.51.31-.8.47-.88.47l-.35-.12h-.23c-.47,0-.7.18-.7.53l.35.59v.12c0,.55-.31.82-.94.82-.43,0-1.68.72-3.75,2.17l-1.7.35-1.41.76c-.47-.27-.76-.41-.88-.41l-.94.29-1.7.12s-.75-.39-2.14-1.17c-1.39-.78-2.22-1.56-2.49-2.34-.27-.78-.62-1.57-1.05-2.37-.43-.8-.64-1.36-.64-1.67,0-1.88.16-3.21.47-4.01.31-.8.51-1.4.59-1.79.08-.39.3-.81.67-1.26.37-.45.67-1.18.91-2.2,1.13-2.27,1.91-3.65,2.34-4.16.43-.51.76-1.13,1-1.88l.76-1.05c.08-.08.2-.38.35-.91.16-.53.35-.83.59-.91.31-.55.47-.9.47-1.05,0-1.13-.51-1.7-1.52-1.7-.2,0-.41.21-.64.62s-.77.81-1.61,1.2c-.84.39-1.36.68-1.55.88-.2.2-.62.44-1.26.73s-1.2.75-1.67,1.38l-1,.47c-.31.74-.59,1.15-.82,1.23-.23.08-.96.27-2.17.59-.08.04-.27.27-.59.7-.31.43-.76.64-1.35.64-.47.47-.94,1.02-1.41,1.64-.16,0-.57.16-1.23.47l-1.17.29c-.31.23-.65.61-1.03,1.11-.37.51-1.06.76-2.08.76-.59,0-.88-.47-.88-1.41,0-1.91.67-3.44,2.02-4.57,1.35-1.13,2.33-1.74,2.96-1.82.63-.08,1.02-.31,1.17-.7.16-.39.54-.71,1.14-.97.6-.25,1.31-.82,2.11-1.7.8-.88,1.67-1.47,2.61-1.79l.7-.82Z"/>
      <path d="M161.28,68.32h.23l.59.23c.08,0,.16-.04.23-.12,0-.66.31-1.23.94-1.7.2-.74.64-1.31,1.32-1.7.69-.39,1.77-1.03,3.26-1.93l1.47-1.29.71-.35.47-.59c.43-.51.84-.76,1.23-.76.59,0,.88.22.88.64l-.53,1.17.24,1.93c0,.7-.24,1.33-.73,1.88-.49.55-1.24,1.35-2.26,2.4l-2.99,3.16-1.58.82c-.39.23-.74.51-1.06.82l-2.29,1.93c0,.55-.18.96-.53,1.23h-.94l-.47.23c-.27.74-1.08,1.46-2.41,2.17l-.82.59c-.27.23-.53.35-.76.35l-1.64-.23-1.11.23c-.31,0-.73-.16-1.26-.47-.53-.31-1.07-.56-1.61-.73s-1.24-.9-2.08-2.17c-.84-1.27-1.3-2.1-1.38-2.49,0-.16-.09-.42-.26-.79-.18-.37-.26-.6-.26-.67s.18-.47.53-1.17v-.12c0-.12-.11-.39-.32-.82-.22-.43-.32-.96-.32-1.58,0-.35-.12-.8-.35-1.35.31-.31.47-.55.47-.7s-.06-.38-.18-.67-.18-.52-.18-.67l.35-2.87-.23-1.46.12-1.41c0-.82-.35-1.23-1.05-1.23-.31,0-.7.22-1.17.64l-.41.12c-1.05.51-1.79.93-2.22,1.26-.43.33-.88.5-1.34.5-.23.23-.68.45-1.34.64l-.47.35c-.16.16-.47.39-.93.7,0,.12-.73.77-2.19,1.96-1.46,1.19-2.77,2.31-3.94,3.37-1.17,1.05-2.01,1.63-2.54,1.73-.53.1-.79.6-.79,1.49,0,.16-.35.47-1.05.94-.08,0-.49.43-1.23,1.29-.62-.47-.97-.7-1.05-.7-.51,0-.88.64-1.12,1.93-.24.51-.86.82-1.88.94-.08.04-.22.33-.41.88l-.23.23h-.59c-.08,0-.35.23-.82.67-.47.45-.88.73-1.23.85-.51,1.05-.94,1.58-1.29,1.58-.16,0-.38-.08-.68-.23-.29-.16-.66-.29-1.09-.41-.43-.12-.91-.6-1.44-1.44-.53-.84-.79-1.55-.79-2.14,0-4.34.84-6.7,2.52-7.09l.12-.23v-.47c0-.51.22-.87.67-1.08.45-.21.91-.64,1.38-1.29s.78-1.01.94-1.08h.76c.16,0,.23-.41.23-1.23,0-.23.1-.45.29-.64.2-.19.31-.48.35-.85.04-.37.32-.98.85-1.82.53-.84.79-1.34.79-1.49l-.12-.23c-.98.9-1.68,1.39-2.11,1.46-.43.08-1.02.64-1.76,1.7l-.94-.18c-1.64,1.21-2.66,1.9-3.05,2.05-.39.16-.82.61-1.29,1.35,0,.23-.14.39-.41.47-.27.08-.78.39-1.53.94h-.35c-.98,0-1.47-.7-1.47-2.11l1.23-3.34c.35-1.05,1.18-1.94,2.49-2.67,1.31-.72,2.41-1.42,3.31-2.08.9-.66,1.8-1.02,2.69-1.05l.41-.59c1.33-.51,2.22-1.31,2.69-2.4.47-1.09,1.11-1.64,1.93-1.64,2.15,0,3.79.79,4.92,2.37,1.13,1.58,1.7,2.84,1.7,3.78l.12,1.58c0,.55-.12,1.31-.35,2.29-.47.7-.7,1.23-.7,1.58,0,.31.2.47.59.47.23,0,.55-.17.94-.5.39-.33.83-.63,1.32-.91.49-.27.77-.51.85-.7.39-.94,1.07-1.58,2.05-1.93s1.58-.64,1.82-.88l.59-.47.47-.88c1.05-.47,1.75-.9,2.11-1.29.35-.39.82-.64,1.41-.76s1.25-.47,1.99-1.05l.88-.23.82-.47c.08-.08.31-.18.7-.29.39-.12.97-.32,1.73-.62s1.28-.44,1.55-.44c1.99,0,3.56.8,4.71,2.4,1.15,1.6,1.73,2.89,1.73,3.87l-.12,1.05.23,1.58v.23l-.47,3.22.12,1.11c0,1.84-.39,3.11-1.17,3.81-.2.08-.29.27-.29.59v.53l1.17,2.46c.35.86.62,1.29.82,1.29l1.88-.53c.55-.16,1-.57,1.35-1.23.31-.16.86-.62,1.64-1.41.23-.62.61-.94,1.12-.94Z"/>
      <path d="M181.36,51.86l.82-1.46c.23-.35.54-.71.91-1.08.37-.37.77-1.33,1.2-2.87.43-1.54.91-2.61,1.44-3.19s1.3-.88,2.32-.88c.59,0,1.36.28,2.32.85.96.57,1.9,2.28,2.81,5.13.92,2.85,1.38,4.86,1.38,6.04,0,.47.14,1.06.41,1.79.27.72.45,1.28.53,1.67-.31.66-.47,1.04-.47,1.11l.12,2.4-.7,1.93v1.41c-.47.78-.7,1.27-.7,1.46,0,.23.08.47.23.7,1.83-.78,2.95-1.42,3.34-1.9.39-.49.77-.79,1.14-.91.37-.12.98-.62,1.84-1.52l1.11-.59c.39-.47.72-.89.99-1.26.27-.37.59-.63.96-.79.37-.16.81-.43,1.32-.82.51-.39,1.25-.84,2.22-1.35l.58-.7c.58-.66,1.28-1.19,2.08-1.58.8-.39,1.24-.59,1.32-.59.27,0,.56.36.85,1.08.29.72.44,1.44.44,2.14,0,.66-.38,1.32-1.14,1.96-.76.64-1.28,1.12-1.55,1.44-.27.31-.9.59-1.87.82-.08.04-.72.84-1.93,2.4l-1.17.7-.58.76c-.08.16-.6.31-1.58.47-.04,0-.13.2-.26.59-.14.39-.56.66-1.26.82-1.4,1.29-2.13,2.01-2.17,2.17l-1.23.23c-.23.74-.43,1.19-.58,1.35-.94.23-1.46.63-1.58,1.17-.12.08-.31.16-.58.23l-.23.18c-.9.7-1.78,1.13-2.63,1.29l-1.35.35-.47.7c0,.2-.48.45-1.43.76-.96.31-1.67.7-2.14,1.17l-1,.76c-1.21.47-1.97.9-2.28,1.29h-.82c-.55,0-1.41.4-2.58,1.2-1.17.8-2.11,1.2-2.81,1.2-2.26,0-3.81-.28-4.65-.85-.84-.57-1.53-1.27-2.08-2.11-.55-.84-1.04-1.51-1.49-2.02-.45-.51-.67-.92-.67-1.23,0-.27.19-.55.56-.82.37-.27.77-.83,1.2-1.67.43-.84,1.52-1.38,3.28-1.61.08,0,.36-.12.85-.35.49-.23.89-.35,1.2-.35.39,0,.88.35,1.46,1.05,0,.08.08.12.23.12l.94-.12c.43.31.72.47.88.47.94,0,1.93-.47,2.99-1.41l.23-.12h.47c.12,0,.31-.33.58-1l1-2.05,2.05-2.64v-.59c0-.12.12-.47.35-1.05v-.88c0-.35.23-.58.7-.67.47-.1.7-.34.7-.73l-.12-.47c-.31-.43-.47-.76-.47-1l.59-1.17-.12-1.23.23-.47c-.16-.55-.23-.86-.23-.94l.23-1.46s-.11-.41-.32-1.11c-.22-.7-.38-1.05-.5-1.05-.23,0-.98.61-2.23,1.82-1.25,1.21-1.99,2.07-2.23,2.58-.23.51-.73.97-1.5,1.38s-1.28.87-1.55,1.38c-.27.51-.61.8-1,.88l-3.93,3.16-4.28,3.16c-.31.35-.51.53-.59.53-1.45,0-2.17-.8-2.17-2.4,0-.51.29-1.43.88-2.75.27-.16.48-.27.62-.35.14-.08.21-.14.21-.18s-.04-.06-.12-.06l.35.23h.12c1.45-.98,2.39-1.54,2.81-1.7.43-.16.82-.59,1.17-1.29l2.46-1.76c.62-.47,1.58-1.33,2.87-2.58,1.29-1.25,2.11-2.17,2.46-2.75ZM202.56,29.77l-1.52,1.82c-.08.04-.21.09-.38.15s-.32.17-.44.32c-.12.16-.45.35-1,.59-1.48,2.23-3.32,3.83-5.51,4.8-.98,1.6-2.01,2.4-3.11,2.4-1.29,0-2.1-.22-2.43-.67-.33-.45-.65-.81-.97-1.08-.31-.27-.61-.73-.88-1.38-.27-.64-.62-1.24-1.03-1.79-.41-.55-.67-1.12-.79-1.73-.12-.6-.35-1.19-.7-1.76-.35-.57-.66-1.28-.94-2.14l-.59-1.23c-.7-1.13-1.05-1.85-1.05-2.17,0-.86.31-1.29.94-1.29.16,0,.49.04,1,.12h.23c.16,0,.62-.12,1.41-.35,1.6.47,2.52.86,2.75,1.17,0,.08.25.45.76,1.11.08,0,.19.14.35.41.16.27.41.55.76.82.35.27.77.89,1.26,1.85.49.96.89,1.44,1.2,1.44.16,0,.25-.12.29-.35.04-.23.14-.43.29-.59l.76-.12c.47-.43,1.16-.9,2.08-1.41.92-.51,1.86-1.25,2.84-2.23l2.4-1.76c.16-.16.43-.23.82-.23h.59c.39,0,1.19.23,2.4.7.82-.39,1.46-.59,1.93-.59.55,0,.82.35.82,1.05,0,.47-.36.93-1.08,1.38-.72.45-1.37,1-1.93,1.64-.57.64-1.08,1.01-1.55,1.08Z"/>
      <path d="M203.91,59.53l.94-.82h.35c.27,0,.68-.29,1.23-.88l.59-.23c.78-1.17,1.47-1.85,2.05-2.05l.94-.7c.16-.16.38-.29.67-.41s.76-.5,1.41-1.14c.64-.64,1.16-.97,1.55-.97s.7.04.94.12c.23-.47.7-.93,1.41-1.38.7-.45,1.27-.99,1.7-1.61l.76-.35c.62-.31,1.18-.71,1.67-1.2.49-.49,1.12-.73,1.91-.73,1.13,0,2.32.58,3.55,1.73,1.23,1.15,1.85,2.26,1.85,3.31l-1,4.57c-.66,3.36-1.41,5.12-2.23,5.27l-.23,1.23c-.55.39-.82.7-.82.94l.35,1.41c0,.2-.22.49-.64.88-.08,0-.12.12-.12.35v2.4c0,.43-.27.78-.82,1.05.08.08.19.16.35.23.23-.23.76-.35,1.58-.35l.94.12,1.29-1.29c.27-.08.65-.26,1.14-.56.49-.29,1.32-.67,2.49-1.14l7.67-5.86c1.05-1.05,1.85-1.58,2.4-1.58.58,0,.88.37.88,1.11,0,.86-.17,1.57-.5,2.14-.33.57-.64,1.25-.91,2.05-.27.8-.6,1.36-.97,1.67-.37.31-.67.65-.91,1.03-.23.37-.87.91-1.9,1.61-1.04.7-1.91,1.42-2.64,2.14-.72.72-1.32,1.24-1.79,1.55l-2.52,1.82-.35.59c-.08.08-.44.24-1.08.5-.64.25-1.22.58-1.73.97l-1.05.59c-.23.16-.62.25-1.14.29-.53.04-.99.26-1.38.67-.39.41-.7.62-.94.62l-.88-.12-1.17.35c-.66,0-1.47-.4-2.43-1.2-.96-.8-1.44-1.65-1.44-2.55v-.35l.12-.82c0-.16-.12-.56-.35-1.2s-.35-1.01-.35-1.08l.12-.82-.12-.35c0-1.05.08-1.72.23-1.99.16-.27.27-.65.35-1.14.08-.49.16-.89.23-1.2l.29-1.46c.16-.47.35-.78.59-.94.08-.31.23-.84.47-1.58l.23-1.05.59-.82c.31-.31.5-.73.56-1.26s.26-1.08.62-1.67.53-.94.53-1.05c0-.47-.23-.7-.7-.7-.16,0-.64.31-1.46.94l-1.06-.35c-.08,0-.29.2-.64.59,0,.16-.18.27-.53.35-.35.08-.68.37-1,.88l-.47.12-.76-.35h-.23c-.39,0-.63.43-.7,1.29-.43.63-1,1.04-1.7,1.23l-1.29.35c-.43.16-.74.51-.94,1.05-.2.55-.59,1.05-1.17,1.49-.59.45-.98.67-1.17.67-1.09,0-1.64-.6-1.64-1.82l.47-2.75-.12-.35ZM229.22,30.23l-.35-2.29v-.35c0-1.84.62-2.85,1.88-3.05.27-.04,1.09-.29,2.46-.76.7.16,1.44.77,2.2,1.85.76,1.07,1.14,2.02,1.14,2.84,0,.08-.06.25-.18.53-.12.27-.2.79-.23,1.55-.04.76-.42,1.43-1.14,1.99-.72.57-1.49.85-2.31.85-.55,0-1.24-.38-2.08-1.14-.84-.76-1.3-1.44-1.38-2.02Z"/>
      <path d="M250.2,61.23h.7c.82,0,1.43-.08,1.82-.23.23.16.55.23.94.23.08,0,.25-.04.53-.12h1.64c.39,0,1.07-.18,2.05-.53h.12c.39.27.7.41.94.41h.29l1.05-.29c1.44,0,3.2.37,5.27,1.11l1.11-.35c.31,0,.74.16,1.29.47l.47.12c.08.9.12,1.54.12,1.93,0,1.02-.27,1.71-.82,2.08-.55.37-1.22.9-2.02,1.58-.8.68-1.53,1.03-2.2,1.03l-1.29-.35h-.35l-1.35.23c-.16.08-.39.12-.7.12-.66,0-1.28-.21-1.85-.62-.57-.41-.91-.62-1.03-.62l-3.4.47-1.17-.35c-.08-.08-.23-.12-.47-.12s-.69.1-1.38.29c-.68.2-1.24.29-1.67.29-.31,0-.7-.1-1.17-.29-.47-.19-.82-.29-1.05-.29-.35,0-.82.08-1.41.23-.59.16-1.09.23-1.52.23-.39,0-.9-.31-1.52-.94l-.23-.12h-1.23c-.86,0-1.29-.8-1.29-2.4,0-.23.23-.67.7-1.32s.95-.99,1.44-1.03c.49-.04,1.01-.18,1.55-.41.55-.23,1.39-.35,2.52-.35l1.7.35h.23l2.64-.47Z"/>
      <path d="M307.56,9.14l.76-.23c.55,0,1.13-.33,1.76-1,.16,0,.37-.08.64-.23h.94c.59-.59,1.23-.91,1.93-.97s1.55-.21,2.55-.44,1.76-.37,2.28-.41c.53-.04.93-.13,1.2-.26.27-.14.45-.21.53-.21l1.46.23c1.05,0,1.78.21,2.17.62.39.41,1.1,1,2.14,1.76,1.03.76,1.55,2.41,1.55,4.95v.12l-.23,1.35.12.94c0,.23-.16.53-.47.88l-.23.7c0,.78-.24,1.53-.73,2.26-.49.72-.77,1.38-.85,1.96l-.7.94-.94,2.29-1.46,1.93-1.05,2.17-1.23,1.41-.12.35c-.27.74-.67,1.11-1.17,1.11v1.05c0,.39-.26,1.03-.79,1.9s-.83,1.57-.91,2.08l-.59,1.05c.39.31.86.47,1.41.47.12,0,.61-.19,1.46-.59.86-.39,1.54-.59,2.05-.59l5.51-1.11c.12,0,.35.14.7.41.23-.43.39-.64.47-.64l1.46-.59c.55.16.86.23.94.23,1.29,0,2.69-.31,4.21-.94,2.45-.66,4.85-1,7.19-1l4.79-1.05c.27-.31.52-.85.73-1.61s.53-1.26.93-1.49c.41-.23.69-.56.85-.97.16-.41.43-.89.82-1.44l.58-1.58,1.46-2.64.35-1.29c.16-.51.72-1.31,1.69-2.4v-.35c0-.82.35-1.39,1.05-1.7l.12-.23v-1.58c0-.51.45-.86,1.34-1.05l.47-.76-.12-1.88c0-.43.16-.8.47-1.11.31-.31.49-.62.53-.94.04-.31.23-.84.58-1.58l.24-1.29c0-.23.06-.46.18-.67.12-.21.18-.71.18-1.49,0-2.66,1.24-3.98,3.73-3.98.75,0,1.61.5,2.57,1.49s1.45,1.87,1.45,2.61c0,2.31-.2,3.91-.59,4.8-.08.16-.24.62-.5,1.38s-.97,2.14-2.14,4.13l-.65,1.05h-.82l-.12.12.23,1.58-.59.59v.76c-.16.16-.29.41-.41.76s-.4.79-.85,1.32c-.45.53-.67.87-.67,1.03v.7l-.23.47c-.74,1.52-1.13,2.45-1.17,2.78-.04.33-.25.73-.65,1.2,0,.63-.43,1.39-1.29,2.29.08.08.12.16.12.23l-.47,1.7c.16.08,1.78.12,4.87.12l1.11-.12,2.34.47c.27,0,.57.04.88.12l.24.7c1.21.08,1.82.53,1.82,1.35,0,1.25-.45,2.36-1.35,3.34-.9.98-1.93,1.46-3.11,1.46-.31,0-.68-.15-1.11-.44-.43-.29-.78-.44-1.05-.44l-1.52.23-1.47-.47-.94.12-.88-.12-.94.12-.7-.12c-.47,0-.96.2-1.46.59h-1.06c-.08,0-.67,1.14-1.76,3.43-1.09,2.29-1.88,3.99-2.34,5.13-.08.16-.35.35-.82.59-.31,1.37-.92,2.17-1.82,2.4l.12.82c-.23.51-.37,1-.41,1.46-.04.47-.38.95-1.03,1.44-.64.49-1.03,1.2-1.14,2.14s-.43,1.99-.94,3.16c-.51,1.17-.85,1.87-1.03,2.08-.18.22-.51.68-1,1.41-.49.72-.95,1.26-1.38,1.61-.43.35-.64.61-.64.76l.35.82c-.2,1.37-.59,2.05-1.17,2.05v.7c0,.43-.45.84-1.35,1.23.23.47.35.78.35.94,0,.66-.16,1.15-.47,1.46-.55.08-.82.23-.82.47l.35.7c.08.08.12.23.12.47,0,.2-.2,1.17-.59,2.93.78.51,1.17,1.05,1.17,1.64l-.12.76c.59.55.88.86.88.94l-.41,1.35c-.12.51-.47.93-1.06,1.26-.59.33-1.43.5-2.53.5-.98,0-1.65-.14-2-.41-.35-.27-.79-.55-1.32-.82-.53-.27-.83-.56-.91-.85-.08-.29-.39-.8-.94-1.52-.55-.72-.82-1.67-.82-2.84v-.76l-.12-1.64v-.53l.35-2.52-.24-2.11c0-.16.08-.38.23-.67s.27-.56.35-.79c-.39-1.6-.59-2.56-.59-2.87l-1.58-5.86c-.04-.19.19-.6.7-1.23-1.25-.23-1.96-.56-2.13-.97s-.34-.67-.5-.79c-.16-.12-.31-.33-.47-.64l-7.19-3.46s-.15-.21-.32-.53c-.18-.31-.55-.51-1.11-.59-.57-.08-.93-.19-1.08-.35l-.58-.47-2.63-.23-1.23.7c0,.31-.25.78-.73,1.41-.49.63-1,1.64-1.55,3.05-.35.94-.78,1.41-1.29,1.41l-.23.53v1.41c0,.39-.21.71-.61.97-.41.25-.77.5-1.08.73.08.08.16.31.23.7v.23l-.47.88c-.08.08-.16.43-.23,1.05-.08.63-.61,1.31-1.58,2.05l-.82.94v1.23l-.76,2.17c-.51,1.68-1.06,2.95-1.64,3.81-.47.08-.7.27-.7.59l.23.76c.08.08.12.2.12.35,0,.7-.32,1.07-.97,1.11-.65.04-1.01.22-1.09.53.35,1.13.53,1.72.53,1.76,0,.35-.33.66-1,.94h-.12l.35,2.23c-.9.86-1.35,1.58-1.35,2.17.12.08.21.37.29.88v.47c0,1.52-.65,2.29-1.94,2.29-.51,0-1.57-.92-3.2-2.75s-2.43-3.73-2.43-5.68l.41-2.81c.27-2.03.57-3.26.88-3.69.31-.43.6-.99.85-1.67.25-.68.48-1.13.67-1.35.2-.21.41-.56.64-1.03l.59-.94.23-1,.47-1.05c.9-1.44,1.31-2.21,1.23-2.29,0-.39.28-.84.85-1.35.57-.51.85-1.15.85-1.93,0-.7.51-1.56,1.52-2.58l.35-.64c1.8-3.67,3.05-5.74,3.75-6.21-.31-.9-.59-1.35-.82-1.35-.2,0-.45.05-.76.15-.31.1-.61.15-.88.15s-.62.06-1.03.18-1.04.18-1.91.18c-.31,0-.76.08-1.35.23h-.12c-.16,0-.46-.15-.91-.44s-.67-.48-.67-.56c0-.86.69-1.78,2.08-2.75,1.39-.98,3.06-1.74,5.01-2.29.35,0,.8-.25,1.35-.76.55-.51,1.43-.76,2.64-.76l.82-.47.59.12c.9-1.13,1.62-2.19,2.17-3.16v-.7c0-.16.42-.73,1.26-1.73.84-1,1.3-1.57,1.38-1.73v-1c.7-.74,1.21-1.55,1.52-2.43.31-.88,1.02-1.86,2.11-2.96l.82-1.7c.9-1.68,1.77-3.11,2.61-4.31.84-1.19,1.42-2.27,1.73-3.25l.94-1.17.64-1.7c.74-1.68,1.29-2.71,1.64-3.11-.08-1.21-.31-1.82-.7-1.82l-4.45.88-1.05-.12c-.9.47-1.75.76-2.55.88-.8.12-1.71.63-2.72,1.52l-1.23-.18c-.27,0-.62.16-1.03.47-.41.31-1.51.76-3.31,1.35-.16.55-.31.88-.47,1h-1.29l-1.93,1.64c-1.13.66-1.95,1.23-2.46,1.7s-.94.7-1.29.7c-.66,0-2.05,1.76-4.16,5.27l-.76.53-.59.94c-.27.08-.66.16-1.17.23-.74.82-1.35,1.23-1.82,1.23-.35,0-1.08-.3-2.2-.91-1.11-.6-1.67-1.71-1.67-3.31,0-1.76,2.58-3.93,7.73-6.5l1.41-.94c.39-.08.96-.16,1.7-.23,1.17-1.02,2.32-1.77,3.46-2.26,1.13-.49,1.95-.94,2.46-1.35s1.37-.79,2.58-1.14,2.01-.79,2.4-1.32.62-.79.7-.79l1.23.12.82-.59ZM298.34,45.88c.31.08.74.12,1.29.12.31,0,.47-.14.47-.41,0-.23-.12-.35-.35-.35-.62,0-1.09.22-1.41.64ZM319.52,49.69l.82.7c.16-.08.33-.12.53-.12.62,0,1.75.54,3.39,1.61,1.64,1.07,2.57,1.84,2.81,2.29.23.45.58,1.07,1.02,1.88.45.8.85,1.81,1.2,3.02.35,1.21.68,1.97.99,2.29.27-.51.53-1.11.76-1.82l2.17-5.04c0-.08.2-.35.59-.82l.47-.88.59-.12c-.08-.16-.12-.39-.12-.7,0-.47.49-1.19,1.47-2.17l.59-1.82,1.47-1.88c.16-.7.47-1.44.94-2.23.47-.78.74-1.17.82-1.17l.47-.23c.27-1.44.64-2.4,1.11-2.87l.12-.35c-.16.08-.27.12-.35.12-.08-.08-.31-.16-.7-.23h-.29c-.39,0-.9.12-1.52.35h-.59c-.08,0-.29-.08-.64-.23h-.23l-1.64.7h-.18l-.59-.47c-.47.08-.94.12-1.41.12-.16,0-.54.12-1.14.35s-1.18.35-1.73.35l-2.81.35-1.41-.12h-1.35l-1.17-.47c-.74.9-1.58,1.35-2.52,1.35l-.47.12h-.12l-1.23-.35c-.23,0-.39-.15-.47-.44-.08-.29-.2-.44-.35-.44-.51,1.13-1.22,1.76-2.14,1.88s-1.69.37-2.31.76c-.98.27-1.62.41-1.93.41-.08,0-.23-.06-.47-.18-1.68,2.62-2.52,3.98-2.52,4.1,0,.23.6.35,1.81.35l.82.35c.23.2.67.35,1.31.47.64.12,1.32.29,2.02.53l.88-.23c.08,0,.45.1,1.11.29l2.1.64Z"/>
      <path d="M394.25,64.69l.93-.82c.58,0,.93-.26,1.05-.79s.54-.95,1.26-1.26c.72-.31,1.39-.95,2.02-1.9.62-.96,1.27-1.44,1.93-1.44.23,0,.51.2.82.59.31.39.47.7.47.94,0,1.29-.39,2.62-1.17,3.98l-.23,1.64-.41.76c-.59.31-.97.64-1.14,1s-.63.78-1.38,1.29l-.59.82c-.86.27-1.44.72-1.73,1.35-.29.63-.7.98-1.23,1.05-.53.08-1.1.47-1.73,1.17-.39.2-.86.37-1.41.53l-.12.59c-.39.39-1.01.7-1.85.94-.84.23-1.46.46-1.87.67-.41.22-.69.32-.85.32-.74,0-1.43-.15-2.05-.44-.62-.29-1.27-.48-1.93-.56-.23-.23-.37-.49-.41-.76-.04-.27-.23-.63-.59-1.08-.35-.45-.53-1.06-.53-1.85l.23-1.11c0-.16-.1-.35-.29-.59-.2-.23-.29-.43-.29-.59s.04-.27.12-.35c.08-.08.12-.19.12-.35,0-.19-.04-.41-.12-.64-.08-.23-.12-.43-.12-.59l.35-2.87c0-.23-.08-.35-.23-.35s-.44.2-.85.59c-.41.39-.89.59-1.44.59-.31.23-.57.72-.76,1.46-.31.39-.7.74-1.17,1.05l-.23.35c-.08.27-.37.5-.88.67-.51.18-.86.4-1.05.67l-.59.59-1.11-.12c-.08.08-.29.42-.65,1.03-.35.61-.8,1.1-1.35,1.49l-4.45,3.63c-.47.31-1.15.7-2.05,1.17l-.35.35c-3.13,2.07-5.33,3.11-6.62,3.11-1.06,0-2.29-.29-3.69-.88s-2.17-1.29-2.29-2.11l-.59-2.4c-.35-.55-.53-1.31-.53-2.29,0-.47.04-.78.12-.94v-.35l-.12-1.93c0-.47.37-.7,1.11-.7l-.12-1.58c0-.16.34-.77,1.03-1.85.68-1.07,1.14-1.69,1.38-1.85l.59-.76c-.04-.47.23-.97.82-1.49.59-.53,1.06-1.06,1.41-1.61.35-.55,1.02-1.15,1.99-1.82l1.76-1.76c1.37-1.37,2.85-2.46,4.46-3.28.23-.08.71-.47,1.44-1.17s1.54-1.22,2.46-1.55c.92-.33,1.82-.75,2.7-1.26.88-.51,1.58-.76,2.08-.76h.47c.16,0,1.19-.49,3.11-1.46h.35c.16,0,.53.16,1.11.47h.12l.94-.47c.16-.08.35-.12.59-.12,2.42,0,3.75,1.68,3.99,5.04.08.7.27,1.05.59,1.05.39,0,.95-.71,1.67-2.14.72-1.43,2.26-2.14,4.6-2.14,1.68,0,2.52,1.07,2.52,3.22,0,2.54-1.13,4.94-3.4,7.21-.16.31-.27.66-.35,1.05l-.82,2.4v.12c0,.23-.17.56-.5.97-.33.41-.5.77-.5,1.08l.12,1.46-.23,1.64c0,.74.14,1.23.41,1.46,1.25-.31,2.15-.83,2.72-1.55.56-.72.96-1.12,1.2-1.2l.58-.23c.35-.59.76-1.07,1.23-1.46ZM374.79,64.69c.16-.86.64-1.51,1.44-1.96.8-.45,1.28-.91,1.44-1.38.74-.55,1.81-1.52,3.19-2.93,1.39-1.41,2.08-2.27,2.08-2.58,0-.12-.08-.18-.23-.18h-.12l-.47.29-1.05-.12-1.11.12-.82-.41-.76.12-1.17-.23c-.62,0-1.16.13-1.61.38-.45.25-1.31.54-2.58.85-1.27.31-2.41.85-3.43,1.61-1.02.76-1.76,1.14-2.23,1.14-.27.59-1.19,1.43-2.75,2.52-.94.31-1.54,1-1.82,2.05-1.02.82-1.52,1.29-1.52,1.41l-.41,1c-.31.27-.7.5-1.17.67s-.74.59-.82,1.23c-.08.64-.34,1.23-.79,1.76-.45.53-.67.95-.67,1.26,0,1.91.37,2.87,1.11,2.87.31,0,.97-.21,1.96-.62s1.57-.69,1.73-.85c.16-.16.47-.31.94-.47l1.11-.59c.16-.16.33-.25.53-.29.19-.04.39-.17.59-.38.19-.21.55-.45,1.05-.7s.9-.6,1.17-1.03c.66-.39,1.74-1,3.22-1.82l1.23-.94c.86-.39,1.39-.72,1.58-1,.2-.27.59-.55,1.17-.82Z"/>
      <path d="M452.67,68.32h.23l.59.23c.08,0,.16-.04.23-.12,0-.66.31-1.23.94-1.7.2-.74.64-1.31,1.32-1.7.68-.39,1.77-1.03,3.26-1.93l1.47-1.29.71-.35.47-.59c.43-.51.84-.76,1.23-.76.59,0,.88.22.88.64l-.53,1.17.24,1.93c0,.7-.24,1.33-.73,1.88-.49.55-1.24,1.35-2.26,2.4l-2.99,3.16-1.58.82c-.39.23-.74.51-1.06.82l-2.29,1.93c0,.55-.18.96-.53,1.23h-.94l-.47.23c-.27.74-1.08,1.46-2.41,2.17l-.82.59c-.27.23-.53.35-.76.35l-1.64-.23-1.11.23c-.31,0-.73-.16-1.26-.47-.53-.31-1.07-.56-1.61-.73s-1.24-.9-2.08-2.17c-.84-1.27-1.3-2.1-1.38-2.49,0-.16-.09-.42-.26-.79-.18-.37-.26-.6-.26-.67s.18-.47.53-1.17v-.12c0-.12-.11-.39-.32-.82-.21-.43-.32-.96-.32-1.58,0-.35-.12-.8-.35-1.35.31-.31.47-.55.47-.7s-.06-.38-.18-.67-.18-.52-.18-.67l.35-2.87-.23-1.46.12-1.41c0-.82-.35-1.23-1.05-1.23-.31,0-.7.22-1.17.64l-.41.12c-1.05.51-1.79.93-2.22,1.26-.43.33-.88.5-1.34.5-.23.23-.68.45-1.34.64l-.47.35c-.16.16-.47.39-.93.7,0,.12-.73.77-2.19,1.96-1.46,1.19-2.77,2.31-3.94,3.37-1.17,1.05-2.01,1.63-2.54,1.73-.53.1-.79.6-.79,1.49,0,.16-.35.47-1.05.94-.08,0-.49.43-1.23,1.29-.62-.47-.97-.7-1.05-.7-.51,0-.88.64-1.12,1.93-.24.51-.86.82-1.88.94-.08.04-.22.33-.41.88l-.23.23h-.59c-.08,0-.35.23-.82.67-.47.45-.88.73-1.23.85-.51,1.05-.94,1.58-1.29,1.58-.16,0-.38-.08-.67-.23-.29-.16-.66-.29-1.09-.41-.43-.12-.91-.6-1.44-1.44-.53-.84-.79-1.55-.79-2.14,0-4.34.84-6.7,2.52-7.09l.12-.23v-.47c0-.51.22-.87.67-1.08.45-.21.91-.64,1.38-1.29s.78-1.01.94-1.08h.76c.16,0,.23-.41.23-1.23,0-.23.1-.45.29-.64.19-.19.31-.48.35-.85.04-.37.32-.98.85-1.82.53-.84.79-1.34.79-1.49l-.12-.23c-.98.9-1.68,1.39-2.11,1.46-.43.08-1.02.64-1.76,1.7l-.94-.18c-1.64,1.21-2.66,1.9-3.05,2.05-.39.16-.82.61-1.29,1.35,0,.23-.14.39-.41.47-.27.08-.78.39-1.53.94h-.35c-.98,0-1.47-.7-1.47-2.11l1.23-3.34c.35-1.05,1.18-1.94,2.49-2.67,1.31-.72,2.41-1.42,3.31-2.08.9-.66,1.8-1.02,2.69-1.05l.41-.59c1.33-.51,2.22-1.31,2.69-2.4.47-1.09,1.11-1.64,1.93-1.64,2.15,0,3.79.79,4.92,2.37s1.7,2.84,1.7,3.78l.12,1.58c0,.55-.12,1.31-.35,2.29-.47.7-.7,1.23-.7,1.58,0,.31.2.47.59.47.23,0,.55-.17.94-.5.39-.33.83-.63,1.32-.91.49-.27.77-.51.85-.7.39-.94,1.07-1.58,2.05-1.93.98-.35,1.58-.64,1.82-.88l.58-.47.47-.88c1.05-.47,1.75-.9,2.11-1.29.35-.39.82-.64,1.41-.76s1.25-.47,1.99-1.05l.88-.23.82-.47c.08-.08.31-.18.7-.29.39-.12.97-.32,1.73-.62s1.28-.44,1.55-.44c1.99,0,3.56.8,4.71,2.4,1.15,1.6,1.73,2.89,1.73,3.87l-.12,1.05.23,1.58v.23l-.47,3.22.12,1.11c0,1.84-.39,3.11-1.17,3.81-.2.08-.29.27-.29.59v.53l1.17,2.46c.35.86.62,1.29.82,1.29l1.88-.53c.55-.16,1-.57,1.35-1.23.31-.16.86-.62,1.64-1.41.23-.62.61-.94,1.12-.94Z"/>
      <path d="M472.75,51.86l.82-1.46c.23-.35.54-.71.91-1.08.37-.37.77-1.33,1.2-2.87.43-1.54.91-2.61,1.44-3.19s1.3-.88,2.32-.88c.59,0,1.36.28,2.32.85.96.57,1.9,2.28,2.82,5.13.92,2.85,1.38,4.86,1.38,6.04,0,.47.14,1.06.41,1.79.27.72.45,1.28.53,1.67-.31.66-.47,1.04-.47,1.11l.12,2.4-.7,1.93v1.41c-.47.78-.7,1.27-.7,1.46,0,.23.08.47.23.7,1.83-.78,2.95-1.42,3.34-1.9.39-.49.77-.79,1.14-.91s.98-.62,1.84-1.52l1.11-.59c.39-.47.72-.89.99-1.26.27-.37.59-.63.96-.79.37-.16.81-.43,1.32-.82.51-.39,1.25-.84,2.22-1.35l.58-.7c.58-.66,1.28-1.19,2.08-1.58.8-.39,1.24-.59,1.32-.59.27,0,.56.36.85,1.08.29.72.44,1.44.44,2.14,0,.66-.38,1.32-1.14,1.96-.76.64-1.28,1.12-1.55,1.44-.27.31-.9.59-1.87.82-.08.04-.72.84-1.93,2.4l-1.17.7-.59.76c-.08.16-.6.31-1.58.47-.04,0-.13.2-.26.59-.14.39-.56.66-1.26.82-1.4,1.29-2.13,2.01-2.17,2.17l-1.23.23c-.23.74-.43,1.19-.58,1.35-.94.23-1.46.63-1.58,1.17-.12.08-.31.16-.58.23l-.23.18c-.9.7-1.78,1.13-2.63,1.29l-1.35.35-.47.7c0,.2-.48.45-1.43.76-.96.31-1.67.7-2.14,1.17l-1,.76c-1.21.47-1.97.9-2.28,1.29h-.82c-.55,0-1.41.4-2.58,1.2-1.17.8-2.11,1.2-2.81,1.2-2.26,0-3.82-.28-4.65-.85-.84-.57-1.53-1.27-2.08-2.11-.55-.84-1.04-1.51-1.49-2.02-.45-.51-.67-.92-.67-1.23,0-.27.19-.55.56-.82.37-.27.77-.83,1.2-1.67.43-.84,1.52-1.38,3.28-1.61.08,0,.36-.12.85-.35s.89-.35,1.2-.35c.39,0,.88.35,1.46,1.05,0,.08.08.12.23.12l.94-.12c.43.31.72.47.88.47.94,0,1.93-.47,2.99-1.41l.23-.12h.47c.12,0,.31-.33.58-1l1-2.05,2.05-2.64v-.59c0-.12.12-.47.35-1.05v-.88c0-.35.23-.58.7-.67.47-.1.7-.34.7-.73l-.12-.47c-.31-.43-.47-.76-.47-1l.58-1.17-.12-1.23.23-.47c-.16-.55-.23-.86-.23-.94l.23-1.46s-.11-.41-.32-1.11c-.21-.7-.38-1.05-.5-1.05-.23,0-.98.61-2.23,1.82-1.25,1.21-2,2.07-2.23,2.58-.23.51-.73.97-1.5,1.38s-1.28.87-1.55,1.38c-.27.51-.61.8-1,.88l-3.93,3.16-4.28,3.16c-.31.35-.51.53-.59.53-1.45,0-2.17-.8-2.17-2.4,0-.51.29-1.43.88-2.75.27-.16.48-.27.62-.35.14-.08.21-.14.21-.18s-.04-.06-.12-.06l.35.23h.12c1.45-.98,2.39-1.54,2.82-1.7.43-.16.82-.59,1.17-1.29l2.46-1.76c.63-.47,1.58-1.33,2.87-2.58,1.29-1.25,2.11-2.17,2.46-2.75ZM493.95,29.77l-1.52,1.82c-.08.04-.21.09-.38.15s-.32.17-.44.32c-.12.16-.45.35-1,.59-1.49,2.23-3.32,3.83-5.51,4.8-.98,1.6-2.01,2.4-3.11,2.4-1.29,0-2.1-.22-2.43-.67-.33-.45-.65-.81-.97-1.08-.31-.27-.61-.73-.88-1.38-.27-.64-.62-1.24-1.03-1.79-.41-.55-.67-1.12-.79-1.73-.12-.6-.35-1.19-.7-1.76-.35-.57-.67-1.28-.94-2.14l-.59-1.23c-.7-1.13-1.05-1.85-1.05-2.17,0-.86.31-1.29.94-1.29.16,0,.49.04,1,.12h.23c.16,0,.62-.12,1.41-.35,1.6.47,2.52.86,2.75,1.17,0,.08.25.45.76,1.11.08,0,.2.14.35.41.16.27.41.55.76.82.35.27.77.89,1.26,1.85.49.96.89,1.44,1.2,1.44.16,0,.25-.12.29-.35.04-.23.14-.43.29-.59l.76-.12c.47-.43,1.16-.9,2.08-1.41.92-.51,1.87-1.25,2.84-2.23l2.4-1.76c.16-.16.43-.23.82-.23h.59c.39,0,1.19.23,2.4.7.82-.39,1.46-.59,1.93-.59.55,0,.82.35.82,1.05,0,.47-.36.93-1.08,1.38-.72.45-1.37,1-1.93,1.64-.57.64-1.08,1.01-1.55,1.08Z"/>
      <path d="M495.29,59.53l.94-.82h.35c.27,0,.68-.29,1.23-.88l.59-.23c.78-1.17,1.47-1.85,2.05-2.05l.94-.7c.16-.16.38-.29.67-.41s.76-.5,1.41-1.14c.64-.64,1.16-.97,1.55-.97s.7.04.94.12c.23-.47.7-.93,1.41-1.38.7-.45,1.27-.99,1.7-1.61l.76-.35c.62-.31,1.18-.71,1.67-1.2.49-.49,1.12-.73,1.91-.73,1.13,0,2.32.58,3.55,1.73,1.23,1.15,1.85,2.26,1.85,3.31l-1,4.57c-.66,3.36-1.41,5.12-2.23,5.27l-.23,1.23c-.55.39-.82.7-.82.94l.35,1.41c0,.2-.21.49-.64.88-.08,0-.12.12-.12.35v2.4c0,.43-.27.78-.82,1.05.08.08.2.16.35.23.23-.23.76-.35,1.58-.35l.94.12,1.29-1.29c.27-.08.65-.26,1.14-.56.49-.29,1.32-.67,2.49-1.14l7.67-5.86c1.05-1.05,1.85-1.58,2.4-1.58.58,0,.88.37.88,1.11,0,.86-.17,1.57-.5,2.14-.33.57-.64,1.25-.91,2.05-.27.8-.6,1.36-.97,1.67-.37.31-.67.65-.91,1.03-.23.37-.87.91-1.9,1.61-1.04.7-1.91,1.42-2.64,2.14-.72.72-1.32,1.24-1.79,1.55l-2.52,1.82-.35.59c-.08.08-.44.24-1.08.5-.64.25-1.22.58-1.73.97l-1.05.59c-.23.16-.62.25-1.14.29-.53.04-.99.26-1.38.67-.39.41-.7.62-.94.62l-.88-.12-1.17.35c-.67,0-1.48-.4-2.43-1.2-.96-.8-1.44-1.65-1.44-2.55v-.35l.12-.82c0-.16-.12-.56-.35-1.2s-.35-1.01-.35-1.08l.12-.82-.12-.35c0-1.05.08-1.72.23-1.99.16-.27.27-.65.35-1.14.08-.49.16-.89.23-1.2l.29-1.46c.16-.47.35-.78.59-.94.08-.31.23-.84.47-1.58l.23-1.05.59-.82c.31-.31.5-.73.56-1.26s.26-1.08.62-1.67.53-.94.53-1.05c0-.47-.23-.7-.7-.7-.16,0-.64.31-1.46.94l-1.06-.35c-.08,0-.29.2-.64.59,0,.16-.18.27-.53.35-.35.08-.68.37-1,.88l-.47.12-.76-.35h-.23c-.39,0-.63.43-.7,1.29-.43.63-1,1.04-1.7,1.23l-1.29.35c-.43.16-.74.51-.94,1.05-.2.55-.59,1.05-1.17,1.49-.59.45-.98.67-1.17.67-1.09,0-1.64-.6-1.64-1.82l.47-2.75-.12-.35ZM520.61,30.23l-.35-2.29v-.35c0-1.84.62-2.85,1.88-3.05.27-.04,1.09-.29,2.46-.76.7.16,1.44.77,2.2,1.85.76,1.07,1.14,2.02,1.14,2.84,0,.08-.06.25-.18.53-.12.27-.2.79-.23,1.55-.04.76-.42,1.43-1.14,1.99-.72.57-1.49.85-2.31.85-.55,0-1.24-.38-2.08-1.14-.84-.76-1.3-1.44-1.38-2.02Z"/>
    </g>
  </g>
</svg>